<svg xmlns="http://www.w3.org/2000/svg" viewBox="0 0 648.08 159"><g id="Layer_2" data-name="Layer 2"><g id="Layer_1-2" data-name="Layer 1"><g opacity="0.6"><path d="M.72,74.2c4.6-25.4,27-43,53.8-43a49.65,49.65,0,0,1,27.6,8.2L77.52,64a28.2,28.2,0,0,0-19-7.4c-8.4,0-18.6,5.6-20.8,18.2C35.12,89.4,44.32,97,54.52,97c6.8,0,12-1.6,19.2-6.8l-4.6,23.4c-5.2,4-12.6,8.8-28,8.8C12.32,122.4-3.68,99,.72,74.2Z" fill="#dc0d4b"/><path d="M186.32,93.6c-2.2,13.2-3,19-3,26.4h-33.8a107.7,107.7,0,0,1,0-11.4c-6.4,10-17.6,13.8-28,13.8-24.2,0-36.4-22-32-46.8,4.6-25.6,23.2-44.4,49.8-44.4,5.6,0,17.2,2.4,23.4,9l6.2-6.6h27.8Zm-33.8-16.8c2.2-12.2-.8-20.4-9.6-20.4s-14.2,8.2-16.4,20.4.8,20.4,9.6,20.4S150.32,89,152.52,76.8Z" fill="#dc0d4b"/><path d="M200.52,111.6l7.2-21.6c8.6,5.4,18.8,10.8,32.6,10.8,6,0,8.8-1.8,9-4.6.4-3.8-3.6-4.2-10.4-5.4-26.2-4.4-32.4-17.2-30.8-31s14-28.8,41.4-28.8c14,0,25.4,5,33.4,9.2l-7.2,20.4c-10-5.4-19.4-7.6-27.6-7.6-4.8,0-7,1.4-7.4,3.6-.4,2.8,2.8,4,7.2,4.8,28.4,4.8,35.4,18.4,34.2,29.2-2,19.2-16.2,32.2-43.6,32.2A69.57,69.57,0,0,1,200.52,111.6Z" fill="#dc0d4b"/><path d="M324.12,159h-37.4l17.4-99c2.4-13.2,2.8-19,2.8-26.4h33.8a107.7,107.7,0,0,1,0,11.4c6.4-10,17.6-13.8,28-13.8,24.2,0,36.4,22,32,46.8-4.6,25.6-23.2,44.4-49.8,44.4a40.75,40.75,0,0,1-19.4-5.8Zm13.6-82.2c-2.2,12.2.8,20.4,9.6,20.4s14.2-8.2,16.4-20.4-.8-20.4-9.6-20.4S339.92,64.6,337.72,76.8Z" fill="#dc0d4b"/><path d="M463.52,0h36.2l25.19,120h-39l-2.6-18h-39.4l-9.4,18h-38.6Zm16.4,77.4-5.4-34-17.6,34Z" fill="#dc0d4b"/><path d="M645.3,120H599.7L584.1,75.2h-5.2L571.1,120h-40L552.3,0h61.4c25.8,0,37.2,19.8,33.8,39.2-2.6,14.4-10.8,27.2-26,33ZM590.1,53.6c9,0,16.2-2.8,18.2-13.8s-3.8-15.6-12.8-15.6h-7.4l-5.4,29.4Z" fill="#dc0d4b"/></g></g></g></svg>