<svg xmlns="http://www.w3.org/2000/svg" viewBox="0 0 648.08 159"><g id="Layer_2" data-name="Layer 2"><g id="Layer_1-2" data-name="Layer 1"><path d="M54.52,33.2a47.56,47.56,0,0,1,25.39,7.15l-3.74,20A30,30,0,0,0,58.52,54.6c-9.3,0-20.39,6.21-22.77,19.85-1.62,9.13,1.19,14.81,3.84,18A19.27,19.27,0,0,0,54.52,99a29.53,29.53,0,0,0,16.32-4.49l-3.54,18c-3.94,3-11.09,7.93-26.18,7.93-12.47,0-23.26-4.69-30.4-13.2S.54,86.65,2.69,74.55C7.1,50.21,28.41,33.2,54.52,33.2m0-2c-26.8,0-49.2,17.6-53.8,43-4.4,24.8,11.6,48.2,40.4,48.2,15.4,0,22.8-4.8,28-8.8l4.6-23.4c-7.2,5.2-12.4,6.8-19.2,6.8-10.2,0-19.4-7.6-16.8-22.2,2.2-12.6,12.4-18.2,20.8-18.2a28.2,28.2,0,0,1,19,7.4l4.6-24.6a49.65,49.65,0,0,0-27.6-8.2Z" fill="#dc0d4b"/><path d="M139.32,33.2c5.85,0,16.52,2.6,21.94,8.37l1.46,1.55,1.46-1.55,5.61-6h24.55l-10,57.67c-1.92,11.53-2.86,17.82-3,24.73H151.41c-.07-2.59,0-6.92.11-9.27L152,101l-4.19,6.56C142.6,115.7,133,120.4,121.52,120.4c-9.36,0-17.24-3.49-22.77-10.1C91.74,102,89.1,89.43,91.49,76c4.67-26,23.44-42.75,47.83-42.75m-3.2,66c9.28,0,15.81-7.83,18.37-22,1.53-8.47.62-15-2.62-18.88a11.23,11.23,0,0,0-9-3.87c-9.28,0-15.8,7.83-18.37,22-1.53,8.48-.62,15,2.62,18.89a11.23,11.23,0,0,0,9,3.87m3.2-68c-26.6,0-45.2,18.8-49.8,44.4-4.4,24.8,7.8,46.8,32,46.8,10.4,0,21.6-3.8,28-13.8a107.7,107.7,0,0,0,0,11.4h33.8c0-7.4.8-13.2,3-26.4l10.4-60h-27.8l-6.2,6.6c-6.2-6.6-17.8-9-23.4-9Zm-3.2,66c-8.8,0-11.8-8.2-9.6-20.4s7.6-20.4,16.4-20.4,11.8,8.2,9.6,20.4-7.6,20.4-16.4,20.4Z" fill="#dc0d4b"/><path d="M249.52,33c12.86,0,23.59,4.45,30.93,8.18L274.6,57.76C265.66,53.27,256.76,51,248.12,51c-7,0-8.93,2.85-9.37,5.24v.08c-.76,5.3,5.95,6.52,8.85,7,12.49,2.11,21.61,6.07,27.09,11.77a18.47,18.47,0,0,1,5.45,15.25c-2,19.61-16.82,30.41-41.61,30.41a66.65,66.65,0,0,1-35.6-10.08L208.82,93c8.66,5.23,18.55,9.77,31.5,9.77,9.12,0,10.81-4,11-6.43.54-5.36-4.65-6.26-10.66-7.3l-1.4-.24c-21.44-3.6-31-13-29.14-28.8,1.44-12.47,12.63-27,39.41-27m0-2c-27.4,0-39.8,15-41.4,28.8s4.6,26.6,30.8,31c6.8,1.2,10.8,1.6,10.4,5.4-.2,2.8-3,4.6-9,4.6-13.8,0-24-5.4-32.6-10.8l-7.2,21.6a69.57,69.57,0,0,0,38,11.2c27.4,0,41.6-13,43.6-32.2,1.2-10.8-5.8-24.4-34.2-29.2-4.4-.8-7.6-2-7.2-4.8.4-2.2,2.6-3.6,7.4-3.6,8.2,0,17.6,2.2,27.6,7.6l7.2-20.4c-8-4.2-19.4-9.2-33.4-9.2Z" fill="#dc0d4b"/><path d="M368.72,33.2c9.36,0,17.24,3.49,22.77,10.09,7,8.36,9.65,20.88,7.26,34.35-4.67,26-23.44,42.76-47.83,42.76a38.75,38.75,0,0,1-18.32-5.48l-2.53-1.64-.52,3L322.44,157H289.1l17-96.64c2.19-12.07,2.74-18.07,2.82-24.76h29.92c.07,2.59.05,6.91-.11,9.26l-.52,7.78,4.2-6.56c5.24-8.19,14.83-12.88,26.32-12.88m-21.4,66c9.28,0,15.8-7.83,18.37-22,1.53-8.47.62-15-2.62-18.88a11.23,11.23,0,0,0-8.95-3.87c-9.28,0-15.81,7.83-18.37,22-1.53,8.48-.62,15,2.62,18.89a11.23,11.23,0,0,0,8.95,3.87m21.4-68c-10.4,0-21.6,3.8-28,13.8a107.7,107.7,0,0,0,0-11.4h-33.8c0,7.4-.4,13.2-2.8,26.4l-17.4,99h37.4l7.4-42.4a40.75,40.75,0,0,0,19.4,5.8c26.6,0,45.2-18.8,49.8-44.4,4.4-24.8-7.8-46.8-32-46.8Zm-21.4,66c-8.8,0-11.8-8.2-9.6-20.4s7.6-20.4,16.4-20.4,11.8,8.2,9.6,20.4-7.6,20.4-16.4,20.4Z" fill="#dc0d4b"/><path d="M498.09,2l24.36,116h-34.8l-2.36-16.29-.24-1.71H442.7l-.56,1.07L433.3,118h-34L464.68,2h33.41M453.63,79.4h28.63l-.37-2.32-5.4-34-.95-6-2.8,5.4-17.6,34-1.51,2.92M499.72,0h-36.2l-67.6,120h38.6l9.4-18h39.4l2.6,18h39L499.72,0Zm-42.8,77.4,17.6-34,5.4,34Z" fill="#dc0d4b"/><path d="M613.7,2c10.86,0,19.67,3.66,25.49,10.58s8.06,16.43,6.34,26.26C642.77,54.11,634,65.29,620.79,70.33l-2.06.79,1,2L642.07,118h-41L586,74.54l-.47-1.34h-8.3l-.29,1.66L569.42,118H533.48L554,2H613.7M580.3,55.6h9.8c7.45,0,17.65-1.6,20.17-15.44,1-5.64.21-10.09-2.42-13.24S601,22.2,595.5,22.2h-9.07l-.3,1.64-5.4,29.4-.43,2.36M613.7,0H552.3L531.1,120h40l7.8-44.8h5.2L599.7,120h45.6L621.5,72.2c15.2-5.8,23.4-18.6,26-33,3.4-19.4-8-39.2-33.8-39.2Zm-31,53.6,5.4-29.4h7.4c9,0,14.8,4.6,12.8,15.6s-9.2,13.8-18.2,13.8Z" fill="#dc0d4b"/></g></g></svg>